PathFileType	4	(X/Y/Z)	/Users/mathieubourgeois/Desktop/Analyse/Traitement/Sujet_05/Data/Transformed_Sujet_05_velo_60.trc
DataRate	CameraRate	NumFrames	NumMarkers	Units	OrigDataRate	OrigDataStartFrame	OrigNumFrames
120.000000	120.000000	6	36	mm	120.000000	1684	1925
Frame#	Time	RFHD			RANE			STRN			LANI			LKNE			T10			RHUM			RWRB			C7			LFWT			LTOE			RTOE			LWRA			LBWT			RBWT			RFWT			LKNI			RKNI			RKNE			LANE			RANI			LHEE			RHEE			LHUM			LRAD			RRAD			RWRA			LWRB			LFHD			LBHD			RBHD			RSHO			LSHO			CLAV			LCAR			RCAR			
		X1	Y1	Z1	X2	Y2	Z2	X3	Y3	Z3	X4	Y4	Z4	X5	Y5	Z5	X6	Y6	Z6	X7	Y7	Z7	X8	Y8	Z8	X9	Y9	Z9	X10	Y10	Z10	X11	Y11	Z11	X12	Y12	Z12	X13	Y13	Z13	X14	Y14	Z14	X15	Y15	Z15	X16	Y16	Z16	X17	Y17	Z17	X18	Y18	Z18	X19	Y19	Z19	X20	Y20	Z20	X21	Y21	Z21	X22	Y22	Z22	X23	Y23	Z23	X24	Y24	Z24	X25	Y25	Z25	X26	Y26	Z26	X27	Y27	Z27	X28	Y28	Z28	X29	Y29	Z29	X30	Y30	Z30	X31	Y31	Z31	X32	Y32	Z32	X33	Y33	Z33	X34	Y34	Z34	X35	Y35	Z35	X36	Y36	Z36	

1685	14.03333333333333	134.8779602050781	1310.91162109375	124.3285598754882	-366.8413391113281	511.8470458984375	188.3492431640624	-221.8603363037109	1156.226684570312	28.87448310852041	-97.03153228759764	349.4187316894531	-60.46470260620121	-127.3199157714844	742.4791870117188	-145.7151184082032	-339.73828125	1362.670654296875	40.27496337890612	19.2434501647949	1027.649536132812	202.5720672607421	241.9645843505859	890.3779907226562	247.891372680664	-97.90869140625	1411.111450195312	34.49729537963857	-368.3877563476562	1077.294555664062	-90.50320434570324	57.66107559204103	264.0078125	-100.4121398925781	-282.9541931152344	329.0255737304688	157.2050018310546	274.0185546875	931.1007080078125	-147.4053344726563	-541.1422729492188	1101.36328125	-24.35822868347181	-533.1397705078125	1113.197387695312	111.4473342895506	-368.5643920898438	1082.240478515625	156.0939941406249	-115.2237548828125	709.7083740234375	-41.11172866821295	-103.3582305908203	749.40625	115.3480377197265	-102.4761581420899	789.2730102539062	221.5791015624999	-133.1870880126953	350.9630126953125	-136.6365509033204	-338.4184875488281	494.90869140625	108.1374893188476	-180.3058013916016	309.7370300292969	-91.90206146240239	-428.10888671875	527.6913452148438	141.3975830078124	17.94314575195314	1042.625244140625	-149.4399566650391	66.24432373046878	1072.836303710938	-191.6468963623047	59.63730621337888	1061.48388671875	252.9108428955078	273.8490905761719	933.3280029296875	194.8892364501953	239.2749786376953	883.5	-182.0676574707032	146.5767822265625	1291.185424804688	-21.70600700378424	46.00667572021485	1405.85498046875	-52.21028518676766	34.40828323364257	1447.958740234375	77.85327148437491	-35.82632827758791	1317.305541992188	179.9296722412109	-64.56652069091795	1327.910278320312	-115.9652481079103	-94.26570129394531	1268.326538085938	36.96391677856436	316.7933349609375	925.423583984375	-224.723876953125	319.8332824707031	928.5072631835938	283.6725463867188	
1686	14.04166666666667	135.0446472167968	1311.0322265625	125.9006805419921	-363.7828674316406	520.3829345703125	188.3367462158202	-221.1323547363281	1156.34130859375	29.12136650085439	-102.9975280761719	339.8814392089844	-59.53930664062504	-133.2963104248047	734.2813110351562	-144.9006500244141	-339.2853393554688	1362.665283203125	40.26103591918933	19.27633285522458	1027.640625	202.8489379882812	242.0078582763672	890.338134765625	247.9665985107422	-97.46918487548828	1411.299560546875	35.41117858886709	-367.7069702148438	1076.51904296875	-90.93076324462902	53.47153472900392	254.5150756835938	-100.4515686035156	-278.6323547363281	338.552734375	157.3829193115234	274.1612548828125	931.044189453125	-147.3429260253907	-540.3319702148438	1101.2314453125	-24.90102386474623	-532.5228271484375	1113.361083984375	110.7490234374999	-368.1105346679688	1082.622436523438	155.5912170410155	-123.639892578125	701.0525512695312	-40.4789772033692	-98.57132720947267	756.3041381835938	115.793342590332	-98.24945831298831	796.4580078125	222.3513641357421	-137.1741943359375	342.5343017578125	-136.6622467041016	-335.6206665039062	503.8278503417969	107.8355026245116	-184.1274871826172	301.5299987792969	-91.94141387939457	-425.0855407714844	536.1055908203125	141.5660247802734	18.29905700683596	1042.998046875	-149.5254516601563	66.71297454833987	1073.253295898438	-191.5437011718751	59.64390563964841	1061.337524414062	253.2942810058593	273.8521728515625	933.3360595703125	194.9754486083984	239.3672332763672	883.4955444335938	-182.0536346435547	147.5102081298828	1291.7099609375	-20.31377029418951	46.74817276000977	1406.201904296875	-50.82372283935555	34.67115020751952	1448.139038085938	79.29383850097648	-35.84066009521487	1317.286254882812	180.8356323242187	-63.78702163696288	1328.413696289062	-115.1672973632813	-93.75738525390625	1268.498046875	37.62408065795889	316.8798217773438	925.4273681640625	-224.6705322265625	319.8959045410156	928.4616088867188	283.7349243164062	
1687	14.05	135.1152648925781	1311.13037109375	127.4434051513671	-360.2069091796875	528.9862670898438	188.2219848632812	-220.2576141357422	1156.426635742188	29.37411689758291	-107.2647857666015	331.7256469726562	-59.73976898193363	-139.3726806640625	726.4783325195312	-144.078842163086	-338.854248046875	1362.616455078125	40.29916763305651	19.26986122131345	1027.6201171875	203.1260375976562	242.0520477294922	890.320068359375	248.0207366943359	-97.03304290771484	1411.526977539062	36.28054428100576	-367.016357421875	1075.731811523438	-91.39243316650402	48.83096313476564	245.1443481445312	-100.5547790527344	-273.7794494628906	347.7938232421875	157.5502319335937	274.3033752441406	930.979248046875	-147.2937622070313	-539.5646362304688	1101.062377929688	-25.41989326477064	-531.9378051757812	1113.512451171875	110.151023864746	-367.694091796875	1082.915283203125	155.2009735107421	-129.8746948242188	693.07861328125	-39.9579811096192	-92.10385894775392	764.00732421875	116.1793823242187	-94.07438659667972	803.756591796875	223.043960571289	-141.5833740234375	334.4765625	-136.7066650390626	-332.4315795898438	512.499267578125	107.5236511230468	-188.5257873535156	294.0669555664062	-92.23660278320317	-421.7536926269531	544.3079833984375	141.4671478271484	18.65711402893068	1043.35498046875	-149.5937957763672	67.17928314208987	1073.631591796875	-191.4128112792969	59.60624313354489	1061.188842773438	253.7188568115234	273.870849609375	933.3584594726562	195.061767578125	239.4427795410157	883.4973754882812	-182.0533447265625	148.1540069580078	1292.068603515625	-18.76690864562994	47.5256576538086	1406.630249023438	-49.51874160766609	34.81256866455077	1448.3134765625	80.74679565429679	-35.83854293823244	1317.24658203125	181.7653045654296	-63.15140151977538	1328.844116210938	-114.5151901245118	-93.36886596679688	1268.748046875	38.26641082763663	316.9725952148438	925.4530639648438	-224.6106109619141	319.9547729492187	928.3837280273438	283.7759094238281	
1688	14.05833333333333	135.1923828125	1311.19482421875	128.9480743408203	-356.3272399902344	537.3236083984375	188.0846099853515	-219.5757141113281	1156.531982421875	29.59299087524404	-111.8364639282226	323.959228515625	-59.89609909057621	-145.5507659912109	719.0609741210938	-143.2509155273438	-338.4873046875	1362.553344726562	40.33655166625964	19.24057579040525	1027.56591796875	203.4155731201171	242.087158203125	890.2789306640625	248.0948944091797	-96.69088745117188	1411.695434570312	37.22106552124013	-366.3522644042969	1074.95556640625	-91.71646118164074	43.67136001586915	236.0853576660156	-100.5935821533203	-268.2966003417969	356.9960327148438	157.7345581054687	274.4485778808594	930.9320678710938	-147.24609375	-538.7648315429688	1100.873779296875	-25.9458103179933	-531.3825073242188	1113.599365234375	109.6147994995116	-367.2223815917969	1083.155395507812	154.7508239746093	-136.2274780273438	685.482666015625	-39.35113525390631	-87.41658020019533	771.5903930664062	116.6486587524413	-89.85520172119143	811.1809692382812	223.5048675537109	-146.3395385742187	326.8267211914062	-136.7353057861329	-326.9372253417969	520.7852172851562	108.0983963012695	-193.2984771728516	287.11572265625	-92.69363403320317	-418.115966796875	552.1525268554688	141.3643035888671	18.96831130981447	1043.708129882812	-149.612533569336	67.33782958984378	1073.957275390625	-191.6268005371094	59.56107330322263	1061.049560546875	254.0965118408203	273.8520812988281	933.3722534179688	195.1629943847656	239.5204010009766	883.4837646484375	-182.0012512207032	148.7881317138672	1292.425537109375	-17.24487686157233	48.20409774780274	1407.011108398438	-48.16978454589852	35.06221771240234	1448.481079101562	82.11023712158195	-35.8720169067383	1317.220336914062	182.6350860595702	-62.31471252441405	1329.316284179688	-113.4979095458985	-92.94417572021484	1268.937744140625	38.93663024902335	317.0466918945312	925.4762573242188	-224.5452575683594	319.9982910156249	928.3232421875	283.8625793457031	
1689	14.06666666666667	135.2647399902343	1311.255859375	130.3944244384765	-352.1415710449219	545.2760620117188	187.9685668945312	-218.6769409179688	1156.656127929688	29.8507194519042	-116.8008193969726	316.63037109375	-60.02215194702152	-151.8138427734375	712.0527954101562	-142.3993530273438	-338.1347351074219	1362.472534179688	40.45048141479479	19.1898670196533	1027.51416015625	203.7405090332031	242.0997467041015	890.2392578125	248.1941680908203	-96.34291839599609	1411.860107421875	38.11580276489248	-365.6937866210938	1074.1845703125	-92.07101440429699	38.10990524291994	227.2142639160156	-100.6499710083008	-264.2545471191406	365.38232421875	156.583267211914	274.5714111328125	930.8927612304688	-147.1866607666016	-538.038818359375	1100.689331054688	-26.34351921081556	-530.7925415039062	1113.652465820312	109.1411209106444	-366.8207092285156	1083.312866210938	154.3674774169921	-142.5641174316406	678.3425903320312	-38.76893997192388	-82.87377929687501	779.249267578125	117.0532608032226	-85.95811462402347	818.7589721679688	224.1724395751953	-151.4722747802734	319.4109497070312	-136.8001556396485	-322.6278381347656	528.90576171875	108.0360870361327	-198.4871978759766	280.209228515625	-92.39449310302739	-414.1572570800781	559.605224609375	141.3032989501952	19.2531032562256	1044.009521484375	-149.610092163086	67.97710418701175	1074.313842773438	-191.1494445800782	59.48917770385739	1060.91259765625	254.4910736083984	273.8388671875	933.3861083984375	195.2808227539062	239.5990905761719	883.482666015625	-181.9647979736328	149.350830078125	1292.750244140625	-15.77174472808844	48.87368774414063	1407.347412109375	-46.85894393920906	35.13385009765624	1448.628173828125	83.53915405273429	-35.92689132690432	1317.17578125	183.5689544677734	-61.6575584411621	1329.716796875	-112.6676864624024	-92.74575042724609	1269.007568359375	39.56575775146475	317.1256713867188	925.4951782226562	-224.477294921875	320.0187072753906	928.2678833007812	283.9611206054688	
1690	14.075	135.3411254882812	1311.336303710938	131.8106536865234	-347.6295471191406	552.8838500976562	187.9259185791015	-218.2051086425781	1156.764526367188	30.13669013977041	-122.1161880493164	309.6136169433594	-60.14485168457035	-158.1100463867187	705.439208984375	-141.5845947265626	-337.8287353515625	1362.404418945312	40.60629272460925	19.12947463989255	1027.4677734375	204.0590362548828	242.111099243164	890.1959838867188	248.3038787841797	-96.04903411865234	1411.998413085938	39.01899337768545	-365.1246643066406	1073.455078125	-92.39917755126964	32.05507278442384	218.7103729248047	-100.6377792358399	-257.7540893554688	374.0935974121094	156.6885986328124	274.6900024414062	930.8525390625	-147.1007537841797	-537.3515625	1100.531494140625	-26.67261886596693	-530.2738647460938	1113.682006835938	108.7360839843749	-366.3767395019531	1083.441040039062	153.9532165527343	-148.8694000244141	671.6729736328125	-38.21586608886725	-78.54813385009767	786.7276611328125	117.3965835571288	-82.09059143066409	826.4288330078125	224.6434020996093	-156.9945831298828	312.7357177734375	-136.7289123535157	-318.0259094238281	536.7267456054688	108.0238342285156	-204.0268859863281	273.840576171875	-92.40398406982426	-409.9070129394531	566.601806640625	141.3143310546874	19.44826316833498	1044.0615234375	-149.3965606689454	68.05361938476565	1074.540649414062	-191.3600311279297	59.29964447021482	1060.989501953125	254.9957733154296	273.8042297363281	933.4298095703125	195.412353515625	239.6649017333985	883.4911499023438	-181.8973388671875	149.8411407470703	1293.068481445312	-14.37626266479498	49.4569320678711	1407.711791992188	-45.59780120849617	35.26572036743163	1448.769775390625	84.89535522460929	-36.0059394836426	1317.1357421875	184.4755554199218	-60.86447906494139	1330.01953125	-111.8301467895509	-93.64122772216797	1268.3974609375	40.10918045043936	317.1901245117188	925.5169677734375	-224.3806762695313	320.0395507812499	928.2054443359375	284.0743713378906	
